<svg width="99" height="28" viewBox="0 0 99 28" fill="none" xmlns="http://www.w3.org/2000/svg">
<path d="M6.82336 13.6459C3.048 13.6459 0.000427246 10.5983 0.000427246 6.82293C0.000427246 3.04758 3.048 0 6.82336 0C10.5987 0 13.6463 3.04758 13.6463 6.82293C13.6463 10.5983 10.5987 13.6459 6.82336 13.6459Z" fill="#F58865"/>
<path d="M6.82293 27.7467C3.04758 27.7467 0 24.6991 0 20.9238C0 17.1484 3.04758 14.1008 6.82293 14.1008C10.5983 14.1008 13.6459 17.1484 13.6459 20.9238C13.6459 24.6991 10.5983 27.7467 6.82293 27.7467Z" fill="#EE356A"/>
<path d="M20.992 13.6459C17.2166 13.6459 14.1691 10.5983 14.1691 6.82293C14.1691 3.04758 17.2166 0 20.992 0C24.7674 0 27.8149 3.04758 27.8149 6.82293C27.8149 10.5983 24.7446 13.6459 20.992 13.6459Z" fill="#24344C"/>
<path d="M27.7469 27.8604H21.0831C17.2168 27.8604 14.101 24.9493 14.101 21.083C14.101 17.2166 17.2396 14.1008 21.0831 14.1008C24.9267 14.1008 27.7469 17.1939 27.7469 21.0602V27.8604Z" fill="#008890"/>
<path d="M37.5493 10.0297V12.304H42.0069V15.1924H37.5493V17.6941H42.5982V20.7417H33.7057V6.95935H42.5982V10.0069H37.5493V10.0297Z" fill="#24344C"/>
<path d="M49.6485 17.08L51.7181 9.82495H55.7891L52.0365 20.7644H47.2832L43.5078 9.82495H47.6016L49.6485 17.08Z" fill="#24344C"/>
<path d="M66.8191 15.9884H59.5868C59.655 17.2165 60.2008 17.8305 61.2015 17.8305C61.5882 17.8305 61.8838 17.7396 62.134 17.5576C62.3842 17.3757 62.5434 17.1255 62.6344 16.8299H66.6826C66.5462 17.6031 66.2278 18.2854 65.7274 18.8995C65.2271 19.5135 64.613 19.9911 63.8625 20.355C63.112 20.6962 62.2932 20.8781 61.3835 20.8781C60.2918 20.8781 59.3366 20.6507 58.4951 20.1958C57.6536 19.741 56.9941 19.1042 56.5392 18.2399C56.0616 17.3984 55.8342 16.3977 55.8342 15.2606C55.8342 14.1234 56.0616 13.1227 56.5392 12.2812C57.0168 11.4397 57.6536 10.7802 58.5179 10.3481C59.3593 9.8932 60.3146 9.66577 61.4062 9.66577C62.4979 9.66577 63.4531 9.8932 64.2946 10.3253C65.1361 10.7574 65.7729 11.3942 66.2278 12.213C66.6826 13.0318 66.9101 13.987 66.9101 15.0559C66.9101 15.3515 66.8873 15.6472 66.8191 15.9884ZM62.5661 13.1227C62.2477 12.8271 61.8611 12.6906 61.4062 12.6906C60.9059 12.6906 60.4965 12.8271 60.1781 13.1227C59.8597 13.4184 59.6778 13.8278 59.6323 14.3963H63.0437C63.0437 13.8278 62.8845 13.3956 62.5661 13.1227Z" fill="#24344C"/>
<path d="M78.6689 10.9849C79.374 11.8264 79.7379 12.9635 79.7379 14.3963V20.7417H75.9397V14.8967C75.9397 14.2599 75.7806 13.7595 75.4394 13.3956C75.0983 13.0318 74.6661 12.8498 74.0976 12.8498C73.529 12.8498 73.0741 13.0318 72.733 13.3956C72.3918 13.7595 72.2326 14.2826 72.2326 14.9194V20.7189H68.389V9.82498H72.2326V11.6672C72.551 11.0759 73.0059 10.621 73.5972 10.2571C74.1885 9.91595 74.8936 9.73401 75.7123 9.73401C76.9632 9.73401 77.9639 10.1434 78.6689 10.9849Z" fill="#24344C"/>
<path d="M88.0385 17.4894V20.7644H86.4692C85.1274 20.7644 84.0812 20.4233 83.3307 19.7637C82.5801 19.1042 82.1935 18.0125 82.1935 16.466V13.0317H80.7834V9.84771H82.1935V7.18677H86.0371V9.82497H88.0158V13.009H86.0371V16.5569C86.0371 16.8981 86.1053 17.1255 86.2645 17.2847C86.4237 17.4212 86.6739 17.4894 87.0151 17.4894H88.0385Z" fill="#24344C"/>
<path d="M97.2499 10.7347C98.1141 11.4397 98.6372 12.3722 98.8646 13.5094H95.2712C95.1802 13.1227 94.9983 12.8271 94.7254 12.6224C94.4525 12.4177 94.1113 12.3267 93.7019 12.3267C93.4063 12.3267 93.2016 12.3949 93.0424 12.5087C92.8832 12.6224 92.815 12.8043 92.815 13.0318C92.815 13.3047 92.9742 13.5094 93.2926 13.6458C93.611 13.7823 94.1341 13.9415 94.8618 14.1007C95.7033 14.2826 96.4084 14.4873 96.9542 14.692C97.5 14.8967 97.9776 15.2378 98.387 15.7154C98.7964 16.193 99.0011 16.8071 99.0011 17.6031C99.0011 18.2399 98.8191 18.8085 98.478 19.3089C98.1368 19.8092 97.6137 20.1958 96.9542 20.4687C96.2946 20.7417 95.4986 20.8781 94.5889 20.8781C93.0651 20.8781 91.837 20.537 90.9273 19.8774C90.0175 19.2179 89.4717 18.2627 89.267 17.0345H92.9514C92.9969 17.4439 93.1788 17.7396 93.4745 17.9215C93.7702 18.1262 94.1341 18.2172 94.5662 18.2172C94.8618 18.2172 95.0893 18.149 95.2485 18.0125C95.4077 17.876 95.4759 17.7168 95.4759 17.5121C95.4759 17.1937 95.3167 16.9663 94.9756 16.8299C94.6344 16.6934 94.1113 16.5342 93.3835 16.3977C92.542 16.2385 91.8597 16.0338 91.3367 15.8519C90.8136 15.6472 90.336 15.3288 89.9493 14.8739C89.5627 14.4191 89.358 13.805 89.358 13.009C89.358 12.0311 89.7446 11.2123 90.5179 10.5982C91.2912 9.98417 92.3828 9.66577 93.7929 9.66577C95.2485 9.68851 96.3856 10.0297 97.2499 10.7347Z" fill="#24344C"/>
</svg>
